<svg width="54" height="40" viewBox="0 0 54 40" fill="none" xmlns="http://www.w3.org/2000/svg">
<path fill-rule="evenodd" clip-rule="evenodd" d="M0.333496 0.000244141H53.6668V40.0002H0.333496V0.000244141Z" fill="#229E45"/>
<path fill-rule="evenodd" clip-rule="evenodd" d="M27.1166 36.3337L52.2416 20.0253L26.9666 3.66699L1.7583 20.0587L27.1166 36.3337Z" fill="#F8E509"/>
<path fill-rule="evenodd" clip-rule="evenodd" d="M38.0668 20.0002C38.0668 25.8586 33.3085 30.6086 27.4335 30.6086C25.3341 30.6053 23.2828 29.9796 21.5389 28.8107C19.795 27.6417 18.4368 25.982 17.6361 24.0413C16.8353 22.1005 16.6279 19.966 17.0401 17.9074C17.4523 15.8489 18.4656 13.9587 19.9519 12.476C21.4382 10.9932 23.3307 9.98437 25.3902 9.57702C27.4497 9.16966 29.5838 9.38207 31.5226 10.1874C33.4614 10.9927 35.118 12.3548 36.2828 14.1014C37.4476 15.848 38.0685 17.9008 38.0668 20.0002Z" fill="#2B49A3"/>
<path fill-rule="evenodd" clip-rule="evenodd" d="M23.942 26.3586L23.6087 26.1669L23.2754 26.3336L23.3504 25.9586L23.0837 25.6753L23.4587 25.6336L23.642 25.3003L23.8004 25.6503L24.167 25.7169L23.892 25.9669M31.0587 28.1586L30.7337 27.9669L30.4004 28.1336L30.467 27.7586L30.2087 27.4836L30.5837 27.4419L30.7587 27.1003L30.9254 27.4503L31.292 27.5169L31.0087 27.7753M27.992 25.2753L27.7087 25.1086L27.417 25.2586L27.4837 24.9336L27.2504 24.6919L27.5837 24.6586L27.7337 24.3586L27.867 24.6669L28.192 24.7253L27.942 24.9503M35.192 24.2419L34.9087 24.0753L34.617 24.2253L34.6837 23.9003L34.4587 23.6669L34.7837 23.6336L34.9337 23.3419L35.067 23.6419L35.3837 23.7003L35.142 23.9169M27.867 22.0836L27.5337 21.9003L27.2004 22.0669L27.267 21.6836L27.0087 21.4086L27.3837 21.3669L27.5587 21.0253L27.7254 21.3753L28.092 21.4419L27.8087 21.7086M19.092 18.7919L18.7587 18.6086L18.4254 18.7753L18.5087 18.3919L18.2337 18.1169L18.617 18.0753L18.7837 17.7336L18.9504 18.0836L19.317 18.1503L19.042 18.4086M20.1504 23.1753L19.817 22.9836L19.4837 23.1503L19.5587 22.7753L19.292 22.5003L19.667 22.4503L19.842 22.1169L20.0087 22.4669L20.3754 22.5336L20.1004 22.7919M31.1004 17.1836L30.8004 17.0169L30.5004 17.1669L30.567 16.8336L30.3337 16.5836L30.667 16.5419L30.8254 16.2419L30.967 16.5586L31.3004 16.6169L31.0504 16.8419M30.492 20.0336L30.267 19.9003L30.0254 20.0169L30.0754 19.7503L29.892 19.5586L30.1587 19.5253L30.2837 19.2919L30.392 19.5419L30.642 19.5836L30.4587 19.7669M18.6087 23.9669L18.3837 23.8419L18.1587 23.9503L18.2087 23.7003L18.0337 23.5169L18.2837 23.4836L18.4004 23.2586L18.5087 23.4919L18.7587 23.5419L18.567 23.7086M35.2504 24.9836L35.067 24.8919L34.8837 24.9753L34.9254 24.7836L34.7837 24.6503L34.9837 24.6253L35.0837 24.4586L35.167 24.6253L35.3754 24.6669L35.217 24.7919" fill="#FFFFEF"/>
<path fill-rule="evenodd" clip-rule="evenodd" d="M18.6087 23.9669L18.3837 23.8419L18.1587 23.9502L18.2087 23.7002L18.0337 23.5169L18.2837 23.4835L18.4004 23.2585L18.5087 23.4919L18.7587 23.5419L18.567 23.7085" fill="#FFFFEF"/>
<path fill-rule="evenodd" clip-rule="evenodd" d="M18.6087 23.9669L18.3837 23.8419L18.1587 23.9503L18.2087 23.7003L18.0337 23.5169L18.2837 23.4836L18.4004 23.2586L18.5087 23.4919L18.7587 23.5419L18.567 23.7086M22.092 23.9586L21.8754 23.8419L21.6504 23.9503L21.7004 23.7003L21.5254 23.5169L21.7754 23.4836L21.892 23.2586L22.0004 23.4919L22.2504 23.5336L22.0587 23.7086M21.6587 25.1253L21.442 25.0003L21.217 25.1169L21.267 24.8669L21.092 24.6753L21.342 24.6419L21.4587 24.4169L21.567 24.6503L21.817 24.7003L21.6254 24.8669M28.9087 23.0169L28.692 22.8836L28.4587 23.0003L28.5087 22.7503L28.342 22.5586L28.592 22.5336L28.7087 22.3086L28.8087 22.5419L29.0587 22.5836L28.8754 22.7586M26.7837 23.0086L26.5587 22.8836L26.3337 23.0003L26.3837 22.7503L26.217 22.5586L26.467 22.5336L26.5837 22.3003L26.6837 22.5419L26.9337 22.5836L26.7504 22.7586M21.017 22.2753L20.8754 22.1919L20.7337 22.2586L20.767 22.1003L20.6587 21.9836L20.817 21.9669L20.8837 21.8253L20.9504 21.9753L21.1087 22.0003L20.992 22.1086M34.9754 25.8919L34.7587 25.7669L34.5337 25.8836L34.5837 25.6336L34.4087 25.4419L34.6587 25.4086L34.7754 25.1836L34.8837 25.4169L35.1337 25.4669L34.942 25.6336M33.2087 26.1336L33.0254 26.0169L32.8337 26.1169L32.8754 25.9003L32.7337 25.7503L32.942 25.7253L33.042 25.5336L33.1254 25.7336L33.3337 25.7669L33.1754 25.9169M34.042 26.1086L33.8754 26.0086L33.7004 26.0919L33.7337 25.9003L33.6004 25.7586L33.792 25.7336L33.8837 25.5669L33.967 25.7336L34.1587 25.7753L34.017 25.9086M36.442 24.0086L36.2754 23.9253L36.1087 24.0086L36.1504 23.8169L36.017 23.6753L36.2087 23.6503L36.292 23.4836L36.3754 23.6586L36.5504 23.6919L36.417 23.8253M33.1837 27.3086L32.9754 27.1919L32.7504 27.2919L32.8004 27.0586L32.6337 26.8919L32.8837 26.8669L32.992 26.6586L33.092 26.8753L33.342 26.9169L33.1504 27.0753M33.2004 28.2586L33.0004 28.1419L32.8004 28.2503L32.8504 28.0169L32.692 27.8503L32.917 27.8169L33.017 27.6086L33.1087 27.8253L33.3337 27.8669L33.167 28.0336M31.5837 26.1086L31.4254 26.0086L31.2587 26.0919L31.292 25.9086L31.167 25.7669L31.3504 25.7503L31.4337 25.5836L31.517 25.7503L31.7004 25.7836L31.567 25.9169M30.0837 26.1086L29.917 26.0086L29.7504 26.0919L29.792 25.9086L29.6587 25.7669L29.8504 25.7503L29.9337 25.5836L30.017 25.7503L30.192 25.7836L30.0587 25.9169M27.5254 23.8669L27.3587 23.7753L27.192 23.8586L27.2337 23.6669L27.1004 23.5336L27.2837 23.5086L27.367 23.3419L27.4504 23.5086L27.6337 23.5503L27.5004 23.6753M27.8087 28.4253L27.6754 28.3503L27.5254 28.4253L27.5587 28.2586L27.4504 28.1419L27.6087 28.1253L27.6837 27.9836L27.7504 28.1336L27.9087 28.1586L27.792 28.2669M23.942 21.0503L23.6087 20.8586L23.2754 21.0253L23.3504 20.6503L23.0837 20.3753L23.4587 20.3253L23.642 19.9919L23.8004 20.3419L24.167 20.4086L23.892 20.6669" fill="#FFFFEF"/>
<path fill-rule="evenodd" clip-rule="evenodd" d="M37.3667 23.8168C37.5731 23.2812 37.7348 22.7293 37.85 22.1668C32.2 17.2085 25.9083 14.6668 17.9583 15.1918C17.67 15.7498 17.4329 16.3327 17.25 16.9335C26.6667 16.0335 33.5833 20.2002 37.3667 23.8168Z" fill="white"/>
<path d="M34.8333 21.0336L35.0249 21.1419C34.9963 21.1985 34.9875 21.2631 34.9999 21.3252C35.0195 21.3855 35.0612 21.4362 35.1166 21.4669C35.1749 21.5086 35.2333 21.5336 35.2833 21.5252C35.3333 21.5252 35.3666 21.5002 35.3916 21.4669C35.4061 21.4448 35.4121 21.4181 35.4083 21.3919C35.4014 21.3611 35.3871 21.3325 35.3666 21.3086C35.3499 21.2836 35.3083 21.2252 35.2416 21.1586C35.1731 21.0879 35.1218 21.0023 35.0916 20.9086C35.0708 20.8376 35.0762 20.7616 35.1068 20.6943C35.1374 20.627 35.1911 20.5729 35.2583 20.5419C35.3189 20.5166 35.3859 20.5108 35.4499 20.5252C35.5283 20.5433 35.602 20.5773 35.6666 20.6252C35.7833 20.7086 35.8583 20.7919 35.8833 20.8919C35.8948 20.9387 35.8963 20.9874 35.8877 21.0348C35.8791 21.0822 35.8605 21.1272 35.8333 21.1669L35.6333 21.0419C35.6583 20.9919 35.6666 20.9419 35.6499 20.9002C35.6416 20.8586 35.6083 20.8169 35.5499 20.7836C35.5071 20.7491 35.4547 20.7288 35.3999 20.7252C35.3848 20.7247 35.3699 20.7283 35.3567 20.7357C35.3434 20.743 35.3325 20.7538 35.3249 20.7669C35.3083 20.7919 35.3083 20.8169 35.3166 20.8502C35.3249 20.8836 35.3666 20.9502 35.4499 21.0336C35.5333 21.1169 35.5833 21.1919 35.6166 21.2419C35.6464 21.2965 35.6598 21.3585 35.6554 21.4206C35.651 21.4826 35.6288 21.5421 35.5916 21.5919C35.5526 21.6486 35.4974 21.6921 35.4333 21.7169C35.3708 21.7457 35.3009 21.7544 35.2333 21.7419C35.1583 21.7252 35.0833 21.6919 34.9999 21.6336C34.8749 21.5502 34.7999 21.4586 34.7749 21.3586C34.7478 21.2452 34.7657 21.1257 34.8249 21.0252L34.8333 21.0336ZM33.8666 20.4002L34.0749 20.5086C34.0491 20.5661 34.0433 20.6306 34.0583 20.6919C34.0796 20.7491 34.1211 20.7965 34.1749 20.8252C34.2416 20.8669 34.2916 20.8836 34.3416 20.8752C34.3916 20.8752 34.4249 20.8502 34.4499 20.8086C34.4626 20.7888 34.4684 20.7654 34.4666 20.7419C34.4666 20.7169 34.4499 20.6836 34.4249 20.6586C34.3822 20.607 34.3378 20.557 34.2916 20.5086C34.1999 20.4169 34.1416 20.3419 34.1249 20.2752C34.1113 20.2324 34.1072 20.187 34.113 20.1424C34.1187 20.0978 34.1342 20.0549 34.1583 20.0169C34.19 19.9655 34.2364 19.9248 34.2916 19.9002C34.3489 19.8738 34.4127 19.8651 34.4749 19.8752C34.552 19.8882 34.6257 19.9166 34.6916 19.9586C34.8166 20.0419 34.8916 20.1252 34.9166 20.2169C34.9318 20.2638 34.9367 20.3133 34.9309 20.3622C34.9252 20.4111 34.9089 20.4582 34.8833 20.5002L34.6749 20.3836C34.6999 20.3252 34.7083 20.2836 34.6916 20.2419C34.6749 20.2002 34.6416 20.1586 34.5833 20.1252C34.5372 20.0922 34.4817 20.0746 34.4249 20.0752C34.4113 20.0762 34.398 20.0805 34.3864 20.0877C34.3747 20.095 34.3651 20.105 34.3583 20.1169C34.3416 20.1419 34.3416 20.1669 34.3499 20.2002C34.3583 20.2336 34.4083 20.3002 34.4916 20.3836C34.5749 20.4669 34.6333 20.5336 34.6583 20.5836C34.6917 20.6358 34.7094 20.6966 34.7094 20.7586C34.7094 20.8206 34.6917 20.8813 34.6583 20.9336C34.6224 20.9917 34.5702 21.0381 34.5083 21.0669C34.4458 21.0957 34.3759 21.1044 34.3083 21.0919C34.2225 21.0774 34.1404 21.0463 34.0666 21.0002C33.9589 20.9428 33.8759 20.848 33.8333 20.7336C33.8011 20.6223 33.813 20.5029 33.8666 20.4002ZM32.6833 20.0836L33.2916 19.0836L34.0249 19.5419L33.9249 19.7086L33.3916 19.3752L33.2583 19.6002L33.7583 19.9086L33.6499 20.0752L33.1499 19.7669L32.9833 20.0419L33.5416 20.3752L33.4416 20.5419L32.6916 20.0836H32.6833ZM30.9583 18.6669L31.0499 18.5002L31.4999 18.7252L31.2916 19.1419C31.2249 19.1586 31.1416 19.1669 31.0416 19.1586C30.9456 19.148 30.8523 19.1197 30.7666 19.0752C30.6658 19.0261 30.5796 18.9514 30.5166 18.8586C30.4593 18.7723 30.4302 18.6704 30.4333 18.5669C30.4375 18.4592 30.466 18.3538 30.5166 18.2586C30.5667 18.1584 30.6412 18.0724 30.7333 18.0086C30.8213 17.9477 30.9262 17.9156 31.0333 17.9169C31.1166 17.9169 31.1999 17.9419 31.2999 18.0002C31.4333 18.0586 31.5166 18.1419 31.5583 18.2336C31.6016 18.3246 31.6105 18.4282 31.5833 18.5252L31.3583 18.4586C31.372 18.4028 31.3662 18.3439 31.3416 18.2919C31.3166 18.2419 31.2749 18.2086 31.2083 18.1752C31.1694 18.1531 31.1263 18.1394 31.0818 18.1351C31.0373 18.1308 30.9923 18.1359 30.9499 18.1502C30.8666 18.1752 30.7916 18.2502 30.7333 18.3669C30.6749 18.4836 30.6499 18.5919 30.6749 18.6836C30.6864 18.7271 30.7073 18.7675 30.7361 18.802C30.7649 18.8366 30.8009 18.8644 30.8416 18.8836C30.8833 18.9086 30.9333 18.9252 30.9833 18.9252C31.033 18.9328 31.0836 18.9328 31.1333 18.9252L31.1999 18.7919L30.9583 18.6669ZM23.4416 16.8086L23.6083 15.6419L23.9583 15.7002L24.0499 16.5169L24.3749 15.7669L24.7249 15.8169L24.5583 16.9669L24.3333 16.9336L24.4749 16.0252L24.1083 16.9002L23.8833 16.8669L23.7916 15.9252L23.6583 16.8419L23.4416 16.8086ZM22.2666 16.6669L22.3749 15.5002L23.2333 15.5836L23.2166 15.7836L22.5916 15.7252L22.5666 15.9752L23.1499 16.0336L23.1249 16.2336L22.5416 16.1752L22.5166 16.4919L23.1666 16.5502L23.1499 16.7502L22.2666 16.6669Z" fill="#309E3A"/>
<path d="M18.375 15.9418C18.375 15.8168 18.4 15.7251 18.4334 15.6418C18.4626 15.5825 18.5021 15.5289 18.55 15.4835C18.5928 15.4404 18.6438 15.4063 18.7 15.3835C18.7834 15.3585 18.8667 15.3418 18.95 15.3418C19.125 15.3418 19.2584 15.4085 19.3667 15.5085C19.4183 15.5722 19.4566 15.6455 19.4795 15.7242C19.5024 15.8029 19.5094 15.8854 19.5 15.9668C19.5 16.1501 19.4417 16.3001 19.3334 16.4085C19.2777 16.4599 19.2118 16.4991 19.1401 16.5235C19.0683 16.5479 18.9922 16.557 18.9167 16.5501C18.8422 16.5509 18.7683 16.5365 18.6996 16.5079C18.6308 16.4792 18.5686 16.4369 18.5167 16.3835C18.413 16.2607 18.3621 16.102 18.375 15.9418Z" fill="#309E3A"/>
<path d="M18.6167 15.9419C18.6167 16.0669 18.6417 16.1669 18.7 16.2419C18.7584 16.3086 18.8334 16.3502 18.9334 16.3502C18.9766 16.3533 19.02 16.3466 19.0604 16.3307C19.1007 16.3149 19.1371 16.2902 19.1667 16.2586C19.225 16.1919 19.25 16.0919 19.2584 15.9502C19.2584 15.8169 19.2417 15.7169 19.175 15.6502C19.1479 15.6166 19.1136 15.5895 19.0747 15.5708C19.0358 15.552 18.9932 15.5422 18.95 15.5419C18.9062 15.5405 18.8626 15.5487 18.8223 15.566C18.782 15.5833 18.7459 15.6092 18.7167 15.6419C18.65 15.7086 18.625 15.8086 18.6167 15.9419Z" fill="#F7FFFF"/>
<path d="M19.75 16.5419L19.7667 15.3752H20.2667C20.3917 15.3752 20.475 15.3919 20.5333 15.4169C20.5917 15.4336 20.6333 15.4752 20.6667 15.5252C20.7 15.5752 20.7167 15.6419 20.7167 15.7169C20.7173 15.7971 20.6875 15.8745 20.6333 15.9336C20.5717 15.9913 20.4925 16.0265 20.4083 16.0336L20.5333 16.1336C20.5667 16.1669 20.6083 16.2336 20.6583 16.3252L20.8 16.5586H20.5167L20.35 16.2919L20.2333 16.1252C20.2131 16.1023 20.1873 16.0851 20.1583 16.0752C20.1204 16.0642 20.0811 16.0586 20.0417 16.0586H19.9917V16.5419H19.75Z" fill="#309E3A"/>
<path d="M20 15.8752H20.1667C20.2833 15.8752 20.3583 15.8752 20.3833 15.8585C20.4083 15.8585 20.4333 15.8335 20.45 15.8169C20.4667 15.8002 20.475 15.7585 20.475 15.7335C20.475 15.6835 20.4667 15.6502 20.4417 15.6335C20.425 15.6085 20.3917 15.5919 20.3583 15.5835H20.1917L20 15.5752V15.8669V15.8752Z" fill="white"/>
<path d="M21.0837 15.4336L21.5171 15.4586C21.6087 15.4586 21.6837 15.4669 21.7337 15.4836C21.7986 15.5071 21.8561 15.5474 21.9004 15.6003C21.9484 15.6585 21.9826 15.7269 22.0004 15.8003C22.0254 15.8753 22.0337 15.9669 22.0254 16.0753C22.0253 16.1603 22.0112 16.2448 21.9837 16.3253C21.9504 16.4086 21.9004 16.4753 21.8421 16.5253C21.7935 16.5653 21.7365 16.5938 21.6754 16.6086C21.6254 16.6253 21.5504 16.6253 21.4671 16.6253L21.0254 16.6003L21.0837 15.4336Z" fill="#309E3A"/>
<path d="M21.3088 15.6418L21.2671 16.4168H21.5838C21.6254 16.4168 21.6588 16.4002 21.6838 16.3752C21.7088 16.3502 21.7338 16.3168 21.7504 16.2668C21.7671 16.2168 21.7838 16.1418 21.7838 16.0502L21.7754 15.8418C21.7635 15.7979 21.7406 15.7577 21.7088 15.7252C21.6811 15.6973 21.6466 15.6772 21.6088 15.6668C21.5457 15.6528 21.4816 15.6445 21.4171 15.6418H21.3088Z" fill="white"/>
<path d="M26.8003 17.5169L27.0753 16.3835L27.442 16.4669L27.7086 16.5502C27.767 16.5835 27.817 16.6335 27.842 16.7085C27.8753 16.7752 27.8753 16.8502 27.8586 16.9419C27.842 17.0085 27.817 17.0669 27.7753 17.1085C27.7447 17.1451 27.7065 17.1746 27.6633 17.1947C27.6201 17.2149 27.573 17.2253 27.5253 17.2252C27.467 17.2252 27.3836 17.2085 27.2753 17.1835L27.1336 17.1419L27.0336 17.5752L26.8003 17.5169Z" fill="#309E3A"/>
<path d="M27.2503 16.6335L27.1836 16.9502L27.3086 16.9835C27.3919 17.0002 27.4586 17.0169 27.4919 17.0085C27.5243 17.004 27.5546 16.9896 27.5784 16.9672C27.6023 16.9448 27.6187 16.9156 27.6253 16.8835C27.6253 16.8419 27.6253 16.8085 27.6086 16.7752C27.5903 16.7413 27.5609 16.7148 27.5253 16.7002L27.3669 16.6585L27.2586 16.6335H27.2503Z" fill="white"/>
<path d="M27.8833 17.8419L28.275 16.7419L28.7333 16.9086C28.8583 16.9503 28.9333 16.9919 28.9833 17.0253C29.025 17.0669 29.0583 17.1086 29.0666 17.1753C29.075 17.2419 29.0833 17.3003 29.0666 17.3669C29.0333 17.4503 28.9833 17.5086 28.9166 17.5503C28.85 17.5836 28.7666 17.5919 28.6666 17.5753C28.7 17.6169 28.7333 17.6586 28.75 17.7086L28.8166 17.9336L28.8666 18.1919L28.6083 18.1003L28.525 17.8003C28.5098 17.7324 28.4903 17.6656 28.4666 17.6003C28.4556 17.5744 28.4384 17.5515 28.4166 17.5336C28.4 17.5086 28.3666 17.4919 28.3083 17.4753L28.2666 17.4586L28.1 17.9253L27.8833 17.8419Z" fill="#309E3A"/>
<path d="M28.3335 17.2835L28.4919 17.3419C28.6002 17.3835 28.6669 17.4002 28.7002 17.4002C28.7252 17.4002 28.7502 17.4002 28.7752 17.3752C28.8002 17.3585 28.8169 17.3335 28.8252 17.3002C28.8419 17.2669 28.8419 17.2335 28.8252 17.2002C28.8129 17.1679 28.7892 17.1412 28.7585 17.1252L28.5919 17.0669L28.4252 17.0085L28.3252 17.2835H28.3335Z" fill="white"/>
<path d="M29.25 17.8003C29.2787 17.7028 29.3269 17.612 29.3917 17.5337C29.4339 17.4834 29.4847 17.4411 29.5417 17.4087C29.5934 17.3795 29.6498 17.3597 29.7084 17.3503C29.7917 17.3503 29.875 17.3503 29.9667 17.3837C30.0412 17.4021 30.1109 17.4362 30.1713 17.4836C30.2316 17.531 30.2812 17.5907 30.3167 17.6587C30.3834 17.792 30.3834 17.9503 30.3334 18.1337C30.2921 18.2912 30.1903 18.426 30.05 18.5087C29.925 18.5837 29.775 18.592 29.6167 18.542C29.5424 18.5231 29.4729 18.4889 29.4126 18.4415C29.3524 18.3941 29.3027 18.3347 29.2667 18.267C29.2333 18.1942 29.2147 18.1154 29.2118 18.0353C29.209 17.9553 29.2219 17.8754 29.25 17.8003Z" fill="#309E3A"/>
<path d="M29.4833 17.8669C29.45 17.9919 29.4416 18.1003 29.4833 18.1836C29.525 18.2669 29.5833 18.3169 29.675 18.3503C29.7583 18.3753 29.8416 18.3669 29.925 18.3169C30.0083 18.2753 30.0583 18.1836 30.1 18.0503C30.1416 17.9253 30.1416 17.8253 30.1 17.7419C30.0835 17.7024 30.0586 17.667 30.0269 17.6382C29.9952 17.6094 29.9575 17.5879 29.9166 17.5753C29.8756 17.5611 29.832 17.556 29.7889 17.5603C29.7457 17.5646 29.704 17.5783 29.6666 17.6003C29.5833 17.6503 29.525 17.7336 29.4833 17.8669Z" fill="white"/>
<path d="M31.5254 19.4252L32.0587 18.3918L32.5004 18.6168C32.5836 18.6568 32.6597 18.7103 32.7254 18.7752C32.7671 18.8168 32.7921 18.8668 32.7921 18.9335C32.7921 19.0002 32.7921 19.0585 32.7587 19.1168C32.7267 19.1918 32.667 19.2515 32.5921 19.2835C32.5087 19.3002 32.4254 19.3002 32.3337 19.2668C32.3671 19.3168 32.3837 19.3668 32.4004 19.4085C32.4171 19.4585 32.4254 19.5335 32.4337 19.6418L32.4504 19.9085L32.2004 19.7835L32.1671 19.4752C32.1631 19.4053 32.1548 19.3357 32.1421 19.2668C32.1364 19.2357 32.1219 19.2068 32.1004 19.1835L32.0004 19.1252L31.9587 19.1002L31.7337 19.5335L31.5254 19.4252Z" fill="#309E3A"/>
<path d="M32.042 18.9334L32.2003 19.0167C32.3003 19.0667 32.367 19.1001 32.392 19.1001C32.417 19.1001 32.4503 19.1001 32.4753 19.0834C32.5003 19.0751 32.517 19.0501 32.5337 19.0167C32.5503 18.9834 32.5587 18.9501 32.5503 18.9167C32.54 18.8836 32.5196 18.8544 32.492 18.8334C32.4432 18.8035 32.3932 18.7757 32.342 18.7501L32.1753 18.6667L32.042 18.9334Z" fill="white"/>
<path d="M35.842 21.5585C35.8959 21.4728 35.9668 21.3991 36.0503 21.3418C36.1064 21.3059 36.1685 21.2805 36.2337 21.2668C36.2942 21.2545 36.3565 21.2545 36.417 21.2668C36.5003 21.2835 36.5753 21.3168 36.6503 21.3668C36.7152 21.4072 36.7709 21.4607 36.814 21.5238C36.857 21.587 36.8864 21.6584 36.9003 21.7335C36.9253 21.8752 36.8837 22.0335 36.7837 22.1918C36.7 22.3295 36.5652 22.4284 36.4087 22.4668C36.3341 22.4829 36.2569 22.4831 36.1822 22.4673C36.1075 22.4515 36.037 22.4201 35.9753 22.3752C35.9105 22.3348 35.8548 22.2813 35.8117 22.2182C35.7687 22.155 35.7393 22.0836 35.7253 22.0085C35.7003 21.8585 35.742 21.7085 35.842 21.5585Z" fill="#309E3A"/>
<path d="M36.0502 21.6918C35.9668 21.8001 35.9418 21.9001 35.9585 21.9918C35.9646 22.034 35.9797 22.0744 36.0027 22.1104C36.0257 22.1463 36.0561 22.1769 36.0918 22.2001C36.1752 22.2585 36.2585 22.2751 36.3418 22.2501C36.4252 22.2251 36.5085 22.1668 36.5835 22.0501C36.6585 21.9335 36.6918 21.8335 36.6752 21.7501C36.6668 21.6668 36.6168 21.5918 36.5418 21.5335C36.4668 21.4751 36.3752 21.4668 36.2918 21.4918C36.2085 21.5085 36.1252 21.5751 36.0418 21.6918H36.0502Z" fill="white"/>
<path d="M25.4834 17.042L25.6751 16.2253L26.2751 16.367L26.2501 16.5003L25.8084 16.4003L25.7667 16.5837L26.1751 16.6753L26.1417 16.817L25.7334 16.717L25.6834 16.942L26.1417 17.0503L26.1084 17.1837L25.4834 17.042Z" fill="#309E3A"/>
</svg>
