<svg width="54" height="40" viewBox="0 0 54 40" fill="none" xmlns="http://www.w3.org/2000/svg">
<g id="Group">
<g id="Group_2">
<path id="Vector" fill-rule="evenodd" clip-rule="evenodd" d="M0.333496 0H76.3335V3.07812H0.333496V0ZM0.333496 6.15625H76.3335V9.23438H0.333496V6.15625ZM0.333496 12.3047H76.3335V15.3906H0.333496V12.3047ZM0.333496 18.4609H76.3335V21.5391H0.333496V18.4609ZM0.333496 24.6172H76.3335V27.6953H0.333496V24.6172ZM0.333496 30.7656H76.3335V33.8438H0.333496V30.7656ZM0.333496 36.9219H76.3335V40H0.333496V36.9219Z" fill="#BD3D44"/>
<path id="Vector_2" fill-rule="evenodd" clip-rule="evenodd" d="M0.333496 3.07812H76.3335V6.15625H0.333496V3.07812ZM0.333496 9.23437H76.3335V12.3047H0.333496V9.23437ZM0.333496 15.3828H76.3335V18.4609H0.333496V15.3828ZM0.333496 21.5391H76.3335V24.6172H0.333496V21.5391ZM0.333496 27.6953H76.3335V30.7734H0.333496V27.6953ZM0.333496 33.8438H76.3335V36.9219H0.333496V33.8438Z" fill="white"/>
</g>
<path id="Vector_3" fill-rule="evenodd" clip-rule="evenodd" d="M0.333496 0H30.7319V21.5391H0.333496V0Z" fill="#192F5D"/>
<path id="Vector_4" fill-rule="evenodd" clip-rule="evenodd" d="M2.86426 0.921875L3.14551 1.77344H4.03613L3.31738 2.29687L3.59082 3.15625L2.86426 2.625L2.14551 3.14844L2.41895 2.29687L1.69238 1.77344H2.59863L2.86426 0.921875ZM7.93457 0.921875L8.20801 1.77344H9.10645L8.37988 2.29687L8.65332 3.15625L7.93457 2.625L7.20801 3.14844L7.48145 2.29687L6.7627 1.77344H7.65332L7.93457 0.921875ZM12.9971 0.921875L13.2783 1.77344H14.1611L13.4424 2.29687L13.7158 3.15625L12.9893 2.625L12.2705 3.14844L12.5439 2.29687L11.8174 1.77344H12.7158L12.9971 0.921875ZM18.0674 0.921875L18.3408 1.77344H19.2393L18.5127 2.29687L18.7939 3.15625L18.0674 2.625L17.3408 3.14844L17.6221 2.29687L16.8955 1.77344H17.7861L18.0674 0.921875ZM23.1299 0.921875L23.4111 1.77344H24.3018L23.583 2.29687L23.8564 3.15625L23.1299 2.625L22.4111 3.14844L22.6846 2.29687L21.9658 1.77344H22.8564L23.1299 0.921875ZM28.2002 0.921875L28.4736 1.77344H29.3721L28.6455 2.29687L28.9268 3.15625L28.2002 2.625L27.4736 3.14844L27.7549 2.29687L27.0283 1.77344H27.9268L28.2002 0.921875ZM5.40332 3.07813L5.67676 3.92969H6.5752L5.84863 4.45312L6.11426 5.30469L5.41113 4.78125L4.68457 5.30469L4.94238 4.45312L4.23926 3.92969H5.12988L5.40332 3.07813ZM10.4658 3.07813L10.7471 3.92969H11.6377L10.9111 4.45312L11.1924 5.30469L10.4658 4.78125L9.73926 5.30469L10.0205 4.45312L9.29394 3.92969H10.1924L10.4658 3.07813ZM15.5361 3.07813L15.8096 3.92969H16.708L15.9814 4.45312L16.2549 5.30469L15.5361 4.78125L14.8096 5.30469L15.083 4.45312L14.3643 3.92969H15.2549L15.5361 3.07813ZM20.5986 3.07813L20.8799 3.92969H21.7705L21.0439 4.45312L21.3252 5.30469L20.5986 4.78125L19.8799 5.30469L20.1533 4.45312L19.4268 3.92969H20.333L20.5986 3.07813ZM25.6689 3.07813L25.9424 3.92969H26.8408L26.1143 4.45312L26.3877 5.30469L25.6689 4.78125L24.9424 5.30469L25.2158 4.45312L24.4971 3.92969H25.3877L25.6689 3.07813ZM2.86426 5.22656L3.14551 6.09375H4.03613L3.31738 6.61719L3.59082 7.46875L2.86426 6.9375L2.14551 7.46875L2.41895 6.60937L1.69238 6.08594H2.59863L2.86426 5.22656ZM7.93457 5.22656L8.20801 6.08594H9.10645L8.37988 6.60937L8.65332 7.46094L7.93457 6.92969L7.20801 7.46094L7.48145 6.60156L6.7627 6.07812H7.65332L7.93457 5.22656ZM12.9971 5.22656L13.2783 6.08594H14.1611L13.4424 6.60937L13.7158 7.46094L12.9893 6.92969L12.2705 7.46094L12.5439 6.60156L11.8174 6.07812H12.7158L12.9971 5.22656ZM18.0674 5.22656L18.3408 6.08594H19.2393L18.5127 6.60937L18.7939 7.46094L18.0674 6.92969L17.3408 7.46094L17.6221 6.60156L16.8955 6.07812H17.7861L18.0674 5.22656ZM23.1299 5.22656L23.4111 6.08594H24.3018L23.583 6.60937L23.8564 7.46094L23.1299 6.92969L22.4111 7.46094L22.6846 6.60156L21.9658 6.07812H22.8564L23.1299 5.22656ZM28.2002 5.22656L28.4736 6.08594H29.3721L28.6455 6.60937L28.9268 7.46094L28.2002 6.92969L27.4736 7.46094L27.7549 6.60156L27.0283 6.07812H27.9268L28.2002 5.22656ZM5.40332 7.38281L5.67676 8.23438H6.5752L5.84863 8.75781L6.12207 9.61719L5.40332 9.08594L4.67676 9.60938L4.9502 8.75781L4.23145 8.23438H5.12207L5.40332 7.38281ZM10.4658 7.38281L10.7471 8.23438H11.6377L10.9111 8.75781L11.1924 9.61719L10.4658 9.08594L9.73926 9.60938L10.0205 8.75781L9.29394 8.23438H10.1924L10.4658 7.38281ZM15.5361 7.38281L15.8096 8.23438H16.708L15.9814 8.75781L16.2549 9.61719L15.5361 9.08594L14.8096 9.60938L15.083 8.75781L14.3643 8.23438H15.2549L15.5361 7.38281ZM20.5986 7.38281L20.8799 8.23438H21.7705L21.0518 8.75781L21.3252 9.61719L20.5986 9.08594L19.8799 9.60938L20.1533 8.75781L19.4268 8.23438H20.333L20.5986 7.38281ZM25.6689 7.38281L25.9424 8.23438H26.8408L26.1143 8.75781L26.3877 9.61719L25.6689 9.08594L24.9424 9.60938L25.2158 8.75781L24.4971 8.23438H25.3877L25.6689 7.38281ZM2.86426 9.53906L3.14551 10.3906H4.03613L3.31738 10.9141L3.59082 11.7734L2.86426 11.2422L2.14551 11.7656L2.41895 10.9141L1.69238 10.3906H2.59863L2.86426 9.53906ZM7.93457 9.53906L8.20801 10.3906H9.10645L8.37988 10.9141L8.65332 11.7656L7.93457 11.2422L7.20801 11.7656L7.48145 10.9141L6.7627 10.3906H7.65332L7.93457 9.53906ZM12.9971 9.53906L13.2783 10.3906H14.1611L13.4424 10.9141L13.7158 11.7734L12.9893 11.2422L12.2705 11.7656L12.5439 10.9141L11.8174 10.3906H12.7158L12.9971 9.53906ZM18.0674 9.53906L18.3408 10.3906H19.2393L18.5127 10.9141L18.7939 11.7734L18.0674 11.2422L17.3408 11.7656L17.6221 10.9141L16.8955 10.3906H17.7861L18.0674 9.53906ZM23.1299 9.53906L23.4111 10.3906H24.3018L23.583 10.9141L23.8564 11.7734L23.1299 11.2422L22.4111 11.7656L22.6846 10.9141L21.9658 10.3906H22.8564L23.1299 9.53906ZM28.2002 9.53906L28.4736 10.3906H29.3721L28.6455 10.9141L28.9268 11.7734L28.2002 11.2422L27.4736 11.7656L27.7549 10.9141L27.0283 10.3906H27.9268L28.2002 9.53906ZM5.40332 11.6953L5.67676 12.5469H6.5752L5.84863 13.0703L6.12207 13.9219L5.40332 13.3906L4.67676 13.9219L4.9502 13.0625L4.23145 12.5391H5.12207L5.40332 11.6953ZM10.4658 11.6953L10.7471 12.5469H11.6377L10.9111 13.0703L11.1924 13.9219L10.4658 13.3906L9.73926 13.9219L10.0205 13.0625L9.29394 12.5391H10.1924L10.4658 11.6953ZM15.5361 11.6953L15.8096 12.5469H16.708L15.9814 13.0703L16.2549 13.9219L15.5361 13.3906L14.8096 13.9219L15.083 13.0625L14.3643 12.5391H15.2549L15.5361 11.6953ZM20.5986 11.6953L20.8799 12.5469H21.7705L21.0518 13.0703L21.3252 13.9219L20.5986 13.3906L19.8799 13.9219L20.1533 13.0625L19.4268 12.5391H20.333L20.5986 11.6953ZM25.6689 11.6953L25.9424 12.5469H26.8408L26.1143 13.0703L26.3877 13.9219L25.6689 13.3906L24.9424 13.9219L25.2158 13.0625L24.4971 12.5391H25.3877L25.6689 11.6953ZM2.86426 13.8438L3.14551 14.7031H4.03613L3.31738 15.2266L3.59082 16.0703L2.86426 15.5469L2.14551 16.0703L2.41895 15.2188L1.69238 14.6953H2.59863L2.86426 13.8438ZM7.93457 13.8438L8.20801 14.7031H9.10645L8.37988 15.2266L8.66113 16.0703L7.93457 15.5469L7.20801 16.0703L7.48926 15.2188L6.7627 14.6953H7.65332L7.93457 13.8438ZM12.9971 13.8438L13.2783 14.7031H14.1611L13.4424 15.2266L13.7158 16.0703L12.9893 15.5469L12.2705 16.0703L12.5439 15.2188L11.8174 14.6953H12.7158L12.9971 13.8438ZM18.0674 13.8438L18.3408 14.7031H19.2393L18.5127 15.2266L18.7939 16.0703L18.0674 15.5469L17.3408 16.0703L17.6221 15.2188L16.8955 14.6953H17.7861L18.0674 13.8438ZM23.1299 13.8438L23.4111 14.7031H24.3018L23.583 15.2266L23.8564 16.0703L23.1299 15.5469L22.4111 16.0703L22.6846 15.2188L21.9658 14.6953H22.8564L23.1299 13.8438ZM28.2002 13.8438L28.4736 14.7031H29.3721L28.6455 15.2266L28.9268 16.0703L28.2002 15.5469L27.4736 16.0703L27.7549 15.2188L27.0283 14.6953H27.9268L28.2002 13.8438ZM5.40332 16L5.67676 16.8516H6.5752L5.84863 17.375L6.12207 18.2344L5.40332 17.7031L4.67676 18.2266L4.9502 17.375L4.23145 16.8516H5.12207L5.40332 16ZM10.4658 16L10.7471 16.8516H11.6377L10.9111 17.375L11.1924 18.2344L10.4658 17.7031L9.73926 18.2266L10.0205 17.375L9.29394 16.8516H10.1924L10.4658 16ZM15.5361 16L15.8096 16.8516H16.708L15.9814 17.375L16.2549 18.2344L15.5361 17.7031L14.8096 18.2266L15.083 17.375L14.3643 16.8516H15.2549L15.5361 16ZM20.5986 16L20.8799 16.8516H21.7705L21.0518 17.375L21.3252 18.2344L20.5986 17.7031L19.8799 18.2266L20.1533 17.375L19.4268 16.8516H20.333L20.5986 16ZM25.6689 16L25.9424 16.8516H26.8408L26.1143 17.375L26.3877 18.2344L25.6689 17.7031L24.9424 18.2266L25.2158 17.375L24.4971 16.8516H25.3877L25.6689 16ZM2.86426 18.1562L3.14551 19.0078H4.03613L3.31738 19.5312L3.59082 20.3828L2.86426 19.8594L2.14551 20.3828L2.41895 19.5234L1.69238 19H2.59863L2.86426 18.1562ZM7.93457 18.1562L8.20801 19.0078H9.10645L8.37988 19.5312L8.66113 20.3828L7.93457 19.8594L7.20801 20.3828L7.48926 19.5234L6.7627 19H7.65332L7.93457 18.1562ZM12.9971 18.1562L13.2783 19.0078H14.1611L13.458 19.5312L13.7314 20.3828L13.0049 19.8594L12.2861 20.3828L12.5596 19.5234L11.833 19H12.7314L12.9971 18.1562ZM18.0674 18.1562L18.3408 19.0078H19.2393L18.5127 19.5312L18.7939 20.3828L18.0674 19.8594L17.3408 20.3828L17.6221 19.5234L16.8955 19H17.7861L18.0674 18.1562ZM23.1299 18.1562L23.4111 19.0078H24.3018L23.583 19.5312L23.8564 20.3828L23.1299 19.8594L22.4111 20.3828L22.6846 19.5234L21.9658 19H22.8564L23.1299 18.1562ZM28.2002 18.1562L28.4736 19.0078H29.3721L28.6455 19.5312L28.9268 20.3828L28.2002 19.8594L27.4736 20.3828L27.7549 19.5234L27.0283 19H27.9268L28.2002 18.1562Z" fill="white"/>
</g>
</svg>
